<?xml version="1.0" encoding="utf-8" ?><svg xmlns="http://www.w3.org/2000/svg" xmlns:xlink="http://www.w3.org/1999/xlink" width="1792" height="2432" viewBox="0 0 1792 2432"><path fill="#0C1430" d="M0 0L1792 0L1792 2432L0 2432L0 0Z"/><path fill="#DFF223" d="M521.23 950.206C582.09 946.528 642.931 942.271 703.748 937.437C702.503 968.767 701.377 1000.11 700.368 1031.45C701.319 1036.06 701.648 1040.18 701.177 1044.99C699.88 1058.26 703.717 1086.21 698.307 1096.6L695.714 1159.37C695.327 1169.06 694.331 1186.58 694.66 1195.76C695.639 1205.72 696.049 1246.7 692.279 1254.46L687.343 1386.06C686.502 1410.06 685.079 1438.45 685.047 1462.22C661.312 1486.98 637.297 1511.25 613.013 1535.01C594.546 1553.35 574.303 1574.02 555.351 1591.2L534.371 1591.07C554.08 1608.52 574.286 1627.11 594.205 1643.89C592.486 1680.1 589.019 1729.37 588.773 1764.63L418.075 1755.92C418.901 1740.42 419.573 1723.54 420.758 1708.2C404.489 1689.97 388.084 1671.97 371.547 1654.2L325.382 1655.75C327.853 1658.28 330.531 1661.16 333.037 1663.56L273.14 1721.04C290.219 1735 315.914 1759.33 332.745 1775.15C328.665 1780.54 325.006 1785.21 320.725 1790.3C325.02 1789.69 335.965 1787.74 339.584 1788.62C356.595 1792.77 374.503 1799.92 391.291 1805.7L486.201 1837.44L491.008 1829.39C498.093 1835.41 504.188 1840.53 511.597 1845.91L495.603 1867.21C516.082 1885.15 537.416 1903.31 557.658 1921.63C554.302 1925.88 550.638 1930.7 547.21 1934.75L586.784 1970.1C585.615 1991.67 582.39 2033.87 582.669 2054.2C583.572 2063.75 584.227 2095.87 580.213 2103.28C579.648 2113.36 579.005 2123.44 578.285 2133.5C549.985 2156.21 518.46 2187.9 489.401 2212.41L480.714 2204.86C460.17 2223.36 440.387 2243.79 419.543 2262.11C362.779 2259.68 304.963 2259.01 248.115 2257.59C231.688 2244.08 213.612 2227.42 197.581 2212.93C188.427 2214 178.382 2215.96 169.195 2217.49C165.255 2211.81 161.351 2206.09 157.481 2200.33C160.424 2196.33 164.339 2191.88 167.511 2188.07C145.204 2168.93 121.606 2146.68 99.4341 2126.75C101.477 2086.48 103.336 2046.19 105.011 2005.89C163.636 2009.39 223.87 2010.97 282.582 2013.19C281.543 2033.29 280.678 2053.4 279.987 2073.53C295.85 2090.08 320.651 2115.86 336.955 2130.3C352.521 2127.97 368.526 2126.11 384.144 2124.04L370.365 2109.99C388.637 2091.55 409.29 2072.76 428.218 2055.37C407.868 2035.95 387.27 2014.66 367.236 1994.48C372.329 1986.93 377.869 1979.31 383.105 1971.88C360.523 1976.99 359.402 1975.69 337.438 1967.61C288.061 1949.43 238.083 1933.12 188.768 1914.7C192.145 1907.06 196.217 1899.48 200.005 1892.16C177.259 1867.01 141.599 1834.27 117.107 1810.28L117.478 1796.96C116.565 1789.35 116.046 1752.87 118.951 1747.74L119.787 1746.23C122.27 1712.65 122.61 1677.4 125.185 1643.11C151.143 1621.8 177.222 1600.77 203.419 1580.01C199.174 1575.43 194.641 1569.79 190.524 1564.89C195.947 1557.39 201.415 1549.95 206.926 1542.58L217.922 1555.11C229.606 1546.45 245.745 1531.64 257.358 1521.67C251.564 1513.61 241.254 1502.84 234.472 1495.21L195.045 1450.46C196.344 1436.32 196.707 1414.29 197.338 1399.53L201.447 1309.85C200.282 1300.13 201.462 1287.75 201.114 1277.74C200.876 1270.9 200.516 1268.05 203.79 1263.08C205.447 1235.91 206.163 1207.88 208.142 1180.95L208.335 1173.83C208.842 1165.83 209.135 1157.8 209.211 1149.77C208.586 1143.01 207.86 1102.64 210.796 1099.07L211.721 1097.91C214.796 1057.94 216.173 1010.1 218.099 969.685C234.077 968.174 250.654 967.25 266.693 966.061L279.408 965.424C319.502 960.958 365.465 959.276 406.089 956.696C408.212 961.646 407.506 979.237 404.321 984.746C400.923 1051.18 397.945 1117.66 395.388 1184.17C394.878 1196.03 391.489 1256.91 392.127 1265.12C393.774 1272.86 393.986 1295.52 390.316 1302.11C388.324 1335.2 386.704 1368.34 385.457 1401.5C396.615 1413.33 408.771 1429.47 419.778 1440.07C436.288 1440.27 452.797 1440.67 469.303 1441.27C479.808 1429.05 490.698 1416.91 501.317 1404.82C503.017 1382.02 503.523 1355.27 504.482 1332.07L509.677 1223.39C508.076 1215.28 507.912 1175.04 511.752 1168.23L517.438 1039.14C516.793 1028.04 515.347 989.835 519.652 981.86L521.23 950.206Z"/><path fill="#0D1425" d="M700.368 1031.45C701.319 1036.06 701.648 1040.18 701.177 1044.99C699.88 1058.26 703.717 1086.21 698.307 1096.6C698.485 1076.61 699.474 1051.59 700.368 1031.45Z"/><path fill="#0D1425" d="M694.66 1195.76C695.639 1205.72 696.049 1246.7 692.279 1254.46C692.502 1242.27 693.466 1206.72 694.66 1195.76Z"/><path fill="#0D1425" d="M509.677 1223.39C508.076 1215.28 507.912 1175.04 511.752 1168.23C511.39 1186.08 510.341 1205.34 509.677 1223.39Z"/><path fill="#0D1425" d="M209.211 1149.77C208.586 1143.01 207.86 1102.64 210.796 1099.07L211.721 1097.91C211.479 1107.93 210.267 1140.72 209.211 1149.77Z"/><path fill="#0D1425" d="M517.438 1039.14C516.793 1028.04 515.347 989.835 519.652 981.86C519.076 999.735 518.427 1021.4 517.438 1039.14Z"/><path fill="#0D1425" d="M117.478 1796.96C116.565 1789.35 116.046 1752.87 118.951 1747.74L119.787 1746.23C119.211 1761.73 118.611 1781.78 117.478 1796.96Z"/><path fill="#0D1425" d="M582.669 2054.2C583.572 2063.75 584.227 2095.87 580.213 2103.28C580.533 2092.41 581.564 2064.04 582.669 2054.2Z"/><path fill="#0D1425" d="M201.447 1309.85C200.282 1300.13 201.462 1287.75 201.114 1277.74C200.876 1270.9 200.516 1268.05 203.79 1263.08C203.182 1277.28 202.698 1296.03 201.447 1309.85Z"/><path fill="#0D1425" d="M392.127 1265.12C393.774 1272.86 393.986 1295.52 390.316 1302.11C390.522 1290.55 391.084 1276.56 392.127 1265.12Z"/><path fill="#0D1425" d="M406.089 956.696C408.212 961.646 407.506 979.237 404.321 984.746C404.446 977.736 404.735 963.103 406.089 956.696Z"/><path fill="#DFF223" d="M1335.97 868.017C1379.4 866.27 1422.82 864.1 1466.23 861.505C1505.72 895.24 1547.2 932.775 1586.86 965.09L1608.99 1207.15C1614.19 1268.13 1618.92 1333.53 1624.88 1394.05C1588.65 1438.33 1550.87 1480.81 1514.9 1524.84C1464.17 1529.55 1407.48 1534.58 1356.91 1537.07C1357.21 1521.51 1357.73 1505.1 1357.78 1489.61L1155.16 1487.9L1150 1406.83C1149.1 1392.13 1147.98 1376.19 1147.6 1361.52C1146.89 1333.77 1150.39 1299.16 1149.69 1272.07C1146.89 1258.79 1149.81 1233.11 1148.81 1218.37C1148.67 1216.3 1147.52 1203.95 1150.17 1204.56C1150.74 1207.99 1150.46 1227 1150.82 1232.92C1155.96 1131.1 1155.54 1024.44 1162.01 923.003C1224.07 920.563 1287.17 916.463 1349.31 912.958C1345.78 900.547 1338.5 878.967 1335.97 868.017Z"/><path fill="#0D1425" d="M1149.69 1272.07C1146.89 1258.79 1149.81 1233.11 1148.81 1218.37C1148.67 1216.3 1147.52 1203.95 1150.17 1204.56C1150.74 1207.99 1150.46 1227 1150.82 1232.92C1151.12 1241.59 1150.18 1262.85 1149.69 1272.07Z"/><path fill="#0C1430" d="M1302.74 1015.73C1324.51 1014.19 1346.28 1012.47 1368.03 1010.56C1381.71 1022.37 1396.08 1034.43 1409.47 1046.7C1413.3 1081.71 1415.98 1116.62 1419.62 1151.51C1420.39 1161.16 1421.2 1170.08 1421.78 1179.85L1421.76 1181.37C1422.76 1188.07 1423.47 1197.47 1423.79 1204.4C1426.36 1230.75 1428.61 1257.15 1430.57 1283.6C1431.24 1292.23 1433.31 1313.64 1433.31 1321.27C1434.4 1329.12 1435.39 1343.82 1435.56 1351.79C1435.59 1352.04 1435.67 1352.28 1435.65 1352.52C1435.23 1358.18 1404.33 1391.98 1398.76 1398.7L1332.23 1403.94C1326.4 1308.37 1317.84 1209.68 1310.58 1113.97C1309.46 1104.22 1308.89 1092.53 1308.18 1082.59C1306.24 1060.33 1304.42 1038.04 1302.74 1015.73Z"/><path fill="#0D1425" d="M1433.31 1321.27C1434.4 1329.12 1435.39 1343.82 1435.56 1351.79C1431.47 1346.93 1432.69 1328.45 1433.31 1321.27Z"/><path fill="#0D1425" d="M1308.18 1082.59C1312.42 1089.16 1311.52 1105.62 1310.58 1113.97C1309.46 1104.22 1308.89 1092.53 1308.18 1082.59Z"/><path fill="#0D1425" d="M1421.78 1179.85C1417.77 1173.18 1418.2 1159.39 1419.62 1151.51C1420.39 1161.16 1421.2 1170.08 1421.78 1179.85Z"/><path fill="#0D1425" d="M1423.79 1204.4C1419.69 1197.53 1419.95 1189.89 1421.76 1181.37C1422.76 1188.07 1423.47 1197.47 1423.79 1204.4Z"/><path fill="#DFF223" d="M641.252 188.353C637.506 200.452 628.146 222.85 623.303 235.162C611.212 265.657 599.238 296.238 587.384 326.904L606.295 324.479C579.426 394.586 552.987 464.996 526.982 535.7C558.322 593.07 591.529 658.481 624.291 713.37L610.795 714.817C644.369 779.218 678.852 846.42 713.553 909.604C698.819 911.155 683.592 912.118 668.79 912.81C618.321 915.168 567.597 921.214 517.158 923.001L428.72 726.662C417.045 700.703 402.36 670.096 391.379 644.176C390.274 644.203 389.169 644.201 388.064 644.168C387.998 651.842 388.251 656.459 387.565 664.153C389.326 710.947 394.561 769.124 398.149 816.414C402.73 824.467 401.578 846.346 400.694 856.351C400.723 870.693 404.515 911.536 405.707 928.562C343.524 931.782 280.669 937.878 218.445 942.03C216.35 907.595 214.12 873.176 211.753 838.774C207.441 832.682 208.128 810.983 209.543 803.544C207.427 775.037 205.698 746.159 203.846 717.59C199.619 710.605 200.432 687.803 201.444 679.075C199.232 632.288 195.477 575.948 191.761 529.151C185.171 519.173 191.85 505.79 187.31 492.801C186.49 490.455 187.058 462.675 187.456 459.213C186.684 441.929 184.913 422.522 183.789 405.057L175.888 283.014C171.468 276.734 172.174 256.554 173.737 249.031C173.153 239.633 172.522 230.24 171.844 220.854C231.745 215.446 297.308 210.665 357.198 207.797L369.736 380.48C370.992 398.908 372.338 440.765 374.506 456.815C376.59 461.325 376.245 462.66 377.269 468.107C379.401 468.669 378.658 470.475 378.732 473.516L379.765 473.37C389.286 449.995 403.665 404.317 412.29 379.079L473.672 199.613L641.252 188.353Z"/><path fill="#0D1425" d="M187.456 459.213C189.027 475.292 191.166 512.474 191.761 529.151C185.171 519.173 191.85 505.79 187.31 492.801C186.49 490.455 187.058 462.675 187.456 459.213Z"/><path fill="#0D1425" d="M384.756 630.148C387.004 634.788 389.213 639.464 391.379 644.176C390.274 644.203 389.169 644.201 388.064 644.168C387.998 651.842 388.251 656.459 387.565 664.153C386.22 653.648 385.807 641.29 384.756 630.148Z"/><path fill="#0D1425" d="M398.149 816.414C402.73 824.467 401.578 846.346 400.694 856.351C399.479 847.151 398.653 826.857 398.149 816.414Z"/><path fill="#151D10" d="M374.506 456.815C376.59 461.325 376.245 462.66 377.269 468.107C379.401 468.669 378.658 470.475 378.732 473.516L379.765 473.37C379.507 474.282 377.459 482.163 376.554 481.709C375.394 479.741 374.66 460.569 374.506 456.815Z"/><path fill="#091035" d="M377.269 468.107C379.401 468.669 378.658 470.475 378.732 473.516C376.568 471.727 376.843 471.464 377.269 468.107Z"/><path fill="#0D1425" d="M201.444 679.075C202.584 690.488 203.273 705.839 203.846 717.59C199.619 710.605 200.432 687.803 201.444 679.075Z"/><path fill="#0D1425" d="M173.737 249.031C174.616 260.339 175.333 271.669 175.888 283.014C171.468 276.734 172.174 256.554 173.737 249.031Z"/><path fill="#0D1425" d="M211.753 838.774C207.441 832.682 208.128 810.983 209.543 803.544C210.244 815.1 211.224 827.352 211.753 838.774Z"/><path fill="#DFF223" d="M1006.53 865.969C1046.97 866.156 1093.12 867.873 1133.18 866.502L1134.98 868.022C1135.55 874.81 1134.95 917.01 1134.12 924.11C1134.37 934.38 1133.49 951.399 1134.06 959.948C1135.4 966.254 1135.53 983.063 1135.06 989.187C1134.18 1000.72 1136.82 1034.59 1132.33 1043.2C1130.69 1101.41 1129.38 1159.63 1128.4 1217.86C1129.04 1228.71 1129.9 1320.91 1127.55 1324.56C1126.4 1324.63 1126.72 1314.98 1126.57 1312.98L1122.6 1505.55C1122.06 1534.04 1120.92 1565.47 1120.97 1593.7L963.745 1591.95C948.482 1558 932.96 1518.46 918.596 1483.6L840.742 1295.02C828.323 1265 813.217 1226.13 799.921 1197.57C799.559 1224.9 799.077 1252.22 798.477 1279.54C798.31 1287.66 797.393 1314.93 797.997 1322.1C800.223 1331.39 799.003 1392.13 798.307 1405.21C797.884 1405.63 796.981 1405.62 796.425 1405.69C794.344 1460.34 794.085 1520.82 792.849 1576.11C742.947 1576.97 690.317 1576.02 640.28 1575.68L643.556 1555.49C665.072 1529.98 689.091 1497.38 710.496 1470.33L713.583 1395.64C712.468 1390.14 712.356 1349.95 714.439 1347.59L714.892 1347.81C715.365 1349.04 715.271 1349.45 715.322 1350.98C716.19 1343.47 716.723 1325.29 717.069 1317.34L719.683 1255.57C718.346 1247.04 718.118 1214.06 721.715 1207.47C723.387 1172.18 724.867 1136.88 726.154 1101.57C726.787 1084.68 727.983 1063.58 727.904 1046.94C726.161 1038.59 725.69 1014.71 729.725 1007.56C730.98 984.4 731.544 958.276 733.183 935.61C739.689 934.977 746.43 934.454 752.905 933.682C742.96 913.024 728.791 886.406 719.866 866.106L807.92 866.507L897.665 1078.98L939.773 1177.33C945.417 1190.53 953.291 1207.4 958.338 1220.29C959.462 1219.27 960.598 1218.27 961.745 1217.29C961.419 1211.88 961.871 1200.77 961.989 1194.92L964.511 1066L966.879 928.544L1021.77 925.05C1016.41 905.49 1011.33 885.793 1006.53 865.969Z"/><path fill="#0D1425" d="M1126.57 1312.98C1127.44 1281.63 1127.3 1249.21 1128.4 1217.86C1129.04 1228.71 1129.9 1320.91 1127.55 1324.56C1126.4 1324.63 1126.72 1314.98 1126.57 1312.98Z"/><path fill="#0D1425" d="M797.997 1322.1C800.223 1331.39 799.003 1392.13 798.307 1405.21C797.884 1405.63 796.981 1405.62 796.425 1405.69C795.912 1391.14 797.135 1337.72 797.997 1322.1Z"/><path fill="#0D1425" d="M1134.06 959.948C1135.4 966.254 1135.53 983.063 1135.06 989.187C1134.18 1000.72 1136.82 1034.59 1132.33 1043.2C1132.2 1021.73 1132.88 980.605 1134.06 959.948Z"/><path fill="#0D1425" d="M727.904 1046.94C726.161 1038.59 725.69 1014.71 729.725 1007.56C729.654 1018.54 728.943 1036.29 727.904 1046.94Z"/><path fill="#0D1425" d="M713.583 1395.64C712.468 1390.14 712.356 1349.95 714.439 1347.59L714.892 1347.81C715.365 1349.04 715.271 1349.45 715.322 1350.98C714.743 1365.78 714.288 1380.86 713.583 1395.64Z"/><path fill="#0D1425" d="M719.683 1255.57C718.346 1247.04 718.118 1214.06 721.715 1207.47C721.196 1223.51 720.519 1239.55 719.683 1255.57Z"/><path fill="#151D10" d="M958.338 1220.29C959.462 1219.27 960.598 1218.27 961.745 1217.29C961.392 1221.91 961.371 1230.1 958.338 1220.29Z"/><path fill="#DFF223" d="M820.399 1536.23L838.121 1536.64C847.293 1587.22 859.587 1641.7 870.012 1692.14L931.169 1986.25L971.048 2175.53C977.001 2203.98 985.852 2251.91 992.952 2278.49L803.341 2273.83C797.992 2240.88 793.642 2205.26 788.997 2171.87L660.876 2169.11C654.945 2197.37 646.426 2240.85 639.094 2267.47L530.286 2263.52C506.628 2262.58 481.227 2261 457.623 2260.97C470.781 2247.79 484.11 2234.92 497.604 2222.37L507.28 2234.13L564.853 2181.24C573.853 2173.03 590.715 2158.42 598.794 2149.16C604.509 2095.11 610.637 2024.25 614.422 1969.93C605.562 1959.48 596.545 1952.11 587.664 1942.37C591.58 1928.46 595.178 1914.4 598.454 1900.2L567.629 1899.96L554.279 1887.14C559.383 1872.17 579.332 1800.33 581.732 1784.99C593.176 1785.4 605.256 1786.08 616.653 1786.09C618.49 1768.03 620.082 1749.92 621.428 1731.78C620.684 1724.84 619.289 1706.73 623.746 1702.68C626.626 1669.31 627.586 1633.44 636.709 1602.11L817.394 1604.28C816.316 1593.25 815.407 1555.76 819.734 1547.16C819.939 1543.74 820.11 1539.57 820.399 1536.23Z"/><path fill="#0D1425" d="M817.394 1604.28C816.316 1593.25 815.407 1555.76 819.734 1547.16C819.521 1556.94 818.681 1597.51 817.394 1604.28Z"/><path fill="#0D1425" d="M621.428 1731.78C620.684 1724.84 619.289 1706.73 623.746 1702.68L621.978 1726.62C621.84 1728.38 621.632 1730.05 621.428 1731.78Z"/><path fill="#0C1430" d="M729.748 1733.69C732.167 1734.73 731.771 1738.93 732.513 1742.6C732.855 1745.54 733.003 1747.88 733.193 1750.84C740.734 1839.6 755.297 1928.84 763.334 2015.97C738.367 2015.88 713.403 2015.29 688.448 2014.21C695.117 1982.95 700.948 1947.66 706.233 1915.81C714.927 1863.42 724.08 1805.29 728.237 1751.91C728.738 1745.73 729.114 1739.88 729.748 1733.69Z"/><path fill="#151D10" d="M729.748 1733.69C732.167 1734.73 731.771 1738.93 732.513 1742.6C732.855 1745.54 733.003 1747.88 733.193 1750.84C732.183 1748.92 731.239 1745.53 730.789 1744.77C730.566 1744.73 730.684 1744.7 730.438 1744.9C729.733 1746.54 729.902 1748.16 728.237 1751.91C728.738 1745.73 729.114 1739.88 729.748 1733.69Z"/><path fill="#798A13" d="M730.185 1721.91C730.237 1723.25 730.99 1724.12 731.25 1725.45C732.336 1731.03 732.459 1736.87 732.513 1742.6C731.771 1738.93 732.167 1734.73 729.748 1733.69C729.492 1728.87 729.862 1726.64 730.185 1721.91Z"/><path fill="#DFF223" d="M672.803 189.179C712.295 187.692 756.386 183.957 795.96 180.591C808.413 192.326 831.013 208.611 845.07 220.284L855.856 204.071L885.393 230.018C881.02 235.248 876.015 240.654 871.504 245.918C888.172 259.945 904.668 274.344 920.985 289.108C924.622 335.215 927.072 390.043 929.508 436.693L864.17 505.799L878.269 518.656L862.721 535.366C851.398 527.56 840.145 519.568 828.964 511.392C823.579 518.533 813.319 531.338 809.371 539.174L845.034 566.165C850.004 559.141 855.027 552.187 860.103 545.303C865.834 550.123 870.013 553.707 876.091 557.569C878.154 560.366 876.568 570.97 876.244 574.748L926.653 617.635C927.221 632.743 932.691 740.089 936.055 745.303L936.908 745.217C939.405 744.987 940.196 744.689 942.587 745.838C945.438 750.862 960.832 810.373 963.441 820.147C970.91 848.481 978.722 876.646 986.874 904.632L848.692 911.217C842.665 889.211 832.554 859.029 825.361 837.262C806.548 838.564 785.386 840.617 766.755 841.001C765.612 825.625 764.632 810.227 763.813 794.813C759.397 787.754 760.533 760.146 761.337 751.086C761.385 741.302 760.457 723.812 759.65 714.107C755.448 707.465 755.908 667.546 757.28 659.127C756.607 647.922 755.813 645.759 760.093 636.167C748.583 625.75 736.624 616.702 725.282 606.444C714.555 607.287 702.707 607.901 692.089 609.209C696.761 680.765 702.534 753.132 706.173 824.784L706.983 826.28C708.931 829.707 711.306 842.786 707.074 844.346C686.031 810.966 666.167 767.238 644.647 732.38C648.829 729.401 653.191 726.485 657.414 723.58C625.117 660.68 590.249 597.976 558.763 534.36C584.861 460.864 611.377 387.643 638.309 314.703L622.031 309.454C626.046 298.305 634.261 280.309 639.003 269.126L672.803 189.179Z"/><path fill="#0D1425" d="M757.28 659.127C758.237 674.235 759.649 699.442 759.65 714.107C755.448 707.465 755.908 667.546 757.28 659.127Z"/><path fill="#0D1425" d="M761.337 751.086C762.648 762.058 763.197 782.927 763.813 794.813C759.397 787.754 760.533 760.146 761.337 751.086Z"/><path fill="#0D1425" d="M706.173 824.784L706.983 826.28C708.931 829.707 711.306 842.786 707.074 844.346C706.768 837.857 706.407 831.258 706.173 824.784Z"/><path fill="#0D1425" d="M876.091 557.569C878.154 560.366 876.568 570.97 876.244 574.748C873.245 570.264 874.654 562.934 876.091 557.569Z"/><path fill="#0C1430" d="M706.901 323.594C711.175 323.183 716.324 323.091 720.67 322.869C732.418 332.177 748.165 347.686 760.242 358.364C762.279 380.552 761.694 388.264 769.982 407.54L736.255 446.681L727.439 456.769C714.258 455.922 701.072 455.211 687.883 454.637C686.626 442.177 686.139 424.885 685.356 411.979C683.659 383.13 681.578 354.325 679.112 325.579C688.087 325.213 697.874 324.259 706.901 323.594Z"/><path fill="#DFF223" d="M943.988 171.411L1100.27 161.028C1110.65 192.665 1122.15 235.646 1131.47 268.564L1172.38 411.076L1246.84 666.712C1268.29 740.035 1290.25 816.626 1312.61 889.339L1160.27 898.692C1160.4 879.616 1161.07 860.504 1161.16 841.565L1118.65 843.028C1115.34 826.814 1112.28 810.512 1109.46 794.132C1070.14 796.723 1029.89 801.117 990.69 802.919C984.956 778.751 978.384 752.627 973.164 728.438L958.223 726.772L956.665 699.665C956.423 696.017 956.077 692.772 955.688 689.167C951.183 682.024 952.066 655.705 953.081 646.819C952.494 633.026 951.458 619.454 950.835 605.823C939.464 596.068 927.575 586.161 916.528 575.847L923.563 536.699C913.839 536.685 903.926 536.806 894.221 536.626C896.277 531.094 903.666 510.709 906.048 506.987C919.416 486.1 941.31 467.257 957.448 448.819C953.759 394.144 951.73 335.524 947.358 281.921C940.011 275.467 929.015 266.391 922.203 259.559C928.262 230.442 937.54 200.504 943.988 171.411Z"/><path fill="#0D1425" d="M953.081 646.819C953.498 650.713 953.713 653.745 953.926 657.673C954.488 668.126 955.437 678.698 955.688 689.167C951.183 682.024 952.066 655.705 953.081 646.819Z"/><path fill="#0C1430" d="M1022.1 423.39C1021.59 408.177 1022.25 383.251 1022.19 367.189C1022.19 366.963 1022.35 366.631 1022.54 366.5C1024.05 367.687 1024.27 373.222 1024.44 375.084L1027.48 389.417C1027.57 389.843 1027.67 390.269 1027.77 390.695C1036.73 443.394 1045.44 496.106 1054.41 548.795C1059.81 580.505 1067.67 612.169 1073.24 643.241C1051.79 644.611 1030.35 646.196 1008.92 647.996C1010.79 626.153 1012.53 604.289 1014.14 582.406C1014.6 572.153 1015.42 552.929 1016.68 543.466C1016.74 531.418 1018.64 508.981 1019.38 496.25C1020.81 472.005 1021.72 447.707 1022.1 423.39Z"/><path fill="#4A5013" d="M1022.1 423.39C1021.59 408.177 1022.25 383.251 1022.19 367.189C1022.19 366.963 1022.35 366.631 1022.54 366.5C1024.05 367.687 1024.27 373.222 1024.44 375.084L1027.48 389.417C1027.57 389.843 1027.67 390.269 1027.77 390.695C1026.25 391.18 1026.31 390.888 1024.74 390.863C1024.49 391.504 1023.1 407.002 1022.98 408.516C1022.75 414.59 1022.9 417.385 1022.1 423.39Z"/><path fill="#151D10" d="M1022.98 408.516C1022.95 400.97 1022.11 380.412 1024.44 375.084L1027.48 389.417C1027.57 389.843 1027.67 390.269 1027.77 390.695C1026.25 391.18 1026.31 390.888 1024.74 390.863C1024.49 391.504 1023.1 407.002 1022.98 408.516Z"/><path fill="#0D1425" d="M1014.14 582.406C1014.6 572.153 1015.42 552.929 1016.68 543.466C1017.5 552.701 1018.56 575.361 1014.14 582.406Z"/><path fill="#DFF223" d="M1148.12 1513.35C1207.54 1515.59 1270.74 1515.17 1330.52 1516.06C1332.18 1524.98 1331.36 1594.45 1328.37 1601.15C1327.72 1625.33 1327.54 1650.06 1326.59 1674.14L1149.64 1670.38C1149.08 1695.73 1148.68 1721.08 1148.45 1746.44C1149.34 1755.71 1149.31 1767.31 1149.3 1776.66L1157.19 1776.34C1163.18 1776.12 1168.72 1777.53 1174.73 1777.34C1177.39 1777.25 1177.25 1776.74 1177.64 1779.59L1308.68 1782.37C1308.46 1792 1307.42 1819.25 1308.14 1828.01C1309.84 1835.81 1309.78 1916.75 1307.17 1921.63L1306.37 1923.15C1306.07 1929.86 1305.85 1936.57 1305.73 1943.3C1253.24 1941.8 1196.94 1938.94 1144.66 1939.03C1144.26 1963.82 1143.75 1988.6 1143.15 2013.39C1142.92 2023.95 1142.09 2045.78 1142.64 2055.42C1143.31 2062.06 1143.27 2068.45 1143.18 2075.16C1142.78 2103.64 1143.42 2132.23 1142.43 2160.67C1142.2 2167.33 1143 2169.25 1140.27 2174.79L1138.01 2284.81L1021.15 2281.82L974.065 2065.99L960.623 2004.76C958.621 1995.63 953.638 1974.82 953.208 1966.45C952.342 1949.62 953.364 1927.64 953.794 1910.37C954.531 1877.44 955.421 1844.51 956.462 1811.6C956.355 1793.21 957.319 1770.73 957.741 1752.04C956.821 1747.51 956.539 1741.27 956.899 1736.72C958.189 1720.39 954.531 1659.44 959.691 1648.95C959.869 1638.81 960.177 1628.68 960.614 1618.56L1146.31 1621.48C1147.07 1585.44 1147.67 1549.4 1148.12 1513.35Z"/><path fill="#0D1425" d="M1142.64 2055.42C1143.31 2062.06 1143.27 2068.45 1143.18 2075.16C1142.78 2103.64 1143.42 2132.23 1142.43 2160.67C1142.2 2167.33 1143 2169.25 1140.27 2174.79C1140.25 2148.26 1141.28 2119.58 1141.76 2092.97C1141.95 2082.34 1141.69 2065.32 1142.64 2055.42Z"/><path fill="#0D1425" d="M1308.14 1828.01C1309.84 1835.81 1309.78 1916.75 1307.17 1921.63L1306.37 1923.15C1306.02 1897.74 1306.87 1853.11 1308.14 1828.01Z"/><path fill="#0D1425" d="M957.741 1752.04C956.821 1747.51 956.539 1741.27 956.899 1736.72C958.189 1720.39 954.531 1659.44 959.691 1648.95C959.704 1662.76 957.943 1694.23 958.875 1706.11C957.844 1718.44 958.119 1739.04 957.741 1752.04Z"/><path fill="#0D1425" d="M1330.52 1516.06C1332.18 1524.98 1331.36 1594.45 1328.37 1601.15C1328.25 1590.81 1329.37 1523.35 1330.52 1516.06Z"/><path fill="#0D1425" d="M1148.45 1746.44C1149.34 1755.71 1149.31 1767.31 1149.3 1776.66L1157.19 1776.34C1163.18 1776.12 1168.72 1777.53 1174.73 1777.34C1177.39 1777.25 1177.25 1776.74 1177.64 1779.59C1168.28 1779.7 1157.61 1779.08 1148.08 1778.91L1148.45 1746.44Z"/><path fill="#DFF223" d="M1391.1 1561.74C1394.98 1561 1407.51 1560.52 1411.1 1560.98C1421.11 1562.27 1463.12 1557.37 1469.35 1563.64C1516.25 1565.04 1563.16 1565.99 1610.07 1566.5C1621.56 1566.72 1665.5 1569.15 1674.47 1567.67C1680.91 1566.48 1688.49 1566.9 1695.08 1566.94C1694.6 1574.87 1695.78 1580.88 1692.33 1587.11C1690.76 1632.17 1688.55 1691.61 1688.64 1736.26L1530.08 1731.76C1528.64 1779.81 1527.55 1827.88 1526.82 1875.96C1526.62 1887.53 1525.25 1930.83 1526.04 1940.81C1527.34 1946.63 1527.54 2007.76 1526.32 2014.4C1525.88 2014.82 1525.02 2014.81 1524.45 2014.89C1522.24 2108.16 1519.95 2203.11 1518.81 2296.36L1401.72 2292.84C1378.6 2292.18 1353.49 2290.66 1330.58 2290.87C1327.19 2289.03 1329.24 2248.64 1331.65 2242.85C1332.79 2227.85 1332.7 2199.1 1333.03 2183.25C1333.78 2142.11 1334.69 2100.97 1335.76 2059.84C1334.75 2054.66 1334.48 1986.46 1335.18 1982.49C1338.61 1963 1334.19 1886.54 1339.63 1874.66C1340.62 1863.8 1340.68 1837.21 1340.95 1824.97L1342.96 1725.45C1293.72 1725.29 1240.04 1721.76 1191.34 1723.38L1188.23 1722.83L1187.03 1720.55C1186.21 1714.54 1185.92 1700.69 1188.05 1695.56C1242.17 1696.36 1297.57 1695.75 1351.43 1697.12C1350.18 1688.06 1349.66 1652.42 1353.69 1645.26C1355.58 1621.79 1356.16 1585.76 1357.1 1561.18C1367.28 1561.49 1381.21 1562.51 1391.1 1561.74Z"/><path fill="#0D1425" d="M1335.76 2059.84C1334.75 2054.66 1334.48 1986.46 1335.18 1982.49C1338.61 1963 1334.19 1886.54 1339.63 1874.66C1339.54 1933.44 1337.2 2000.61 1335.76 2059.84Z"/><path fill="#0D1425" d="M1391.1 1561.74C1394.98 1561 1407.51 1560.52 1411.1 1560.98C1421.11 1562.27 1463.12 1557.37 1469.35 1563.64C1449.58 1563.96 1429.32 1562.28 1409.49 1562.53C1403.74 1562.61 1396.74 1562.56 1391.1 1561.74Z"/><path fill="#0D1425" d="M1526.04 1940.81C1527.34 1946.63 1527.54 2007.76 1526.32 2014.4C1525.88 2014.82 1525.02 2014.81 1524.45 2014.89C1523.99 1998.83 1525.15 1956.78 1526.04 1940.81Z"/><path fill="#0D1425" d="M1351.43 1697.12C1350.18 1688.06 1349.66 1652.42 1353.69 1645.26C1353.68 1653.29 1352.99 1691.15 1351.43 1697.12Z"/><path fill="#0D1425" d="M1330.58 2290.87C1327.19 2289.03 1329.24 2248.64 1331.65 2242.85C1331.71 2250.15 1331.23 2285.42 1330.58 2290.87Z"/><path fill="#0D1425" d="M1674.47 1567.67C1680.91 1566.48 1688.49 1566.9 1695.08 1566.94C1694.6 1574.87 1695.78 1580.88 1692.33 1587.11C1692.36 1580.65 1692.63 1575.05 1692.86 1568.68C1686.87 1568.5 1680.37 1568.56 1674.47 1567.67Z"/><path fill="#DFF223" d="M1436.11 135.969L1449.26 134.951L1463.39 289.675C1412.07 293.107 1350.15 299.034 1298.81 305.207L1306.56 407.872C1351.88 404.388 1400.51 398.055 1446.01 393.082C1448.05 408.417 1449.46 431.245 1450.81 447.146L1459.24 547.084C1413.2 550.669 1366.74 556.889 1320.68 560.826C1326.64 650.143 1335.21 747.905 1343.21 837.308C1343.39 840.59 1343.66 841.008 1342.76 843.956C1339.5 846.685 1334.07 845.827 1329.8 845.908C1321.41 822.262 1312.2 788.267 1304.93 763.511L1270.18 646.771L1185.31 355.983C1167.07 292.426 1148.25 223.255 1129.29 160.677L1436.11 135.969Z"/><path fill="#DFF223" d="M1470.09 134.381C1474.04 132.396 1519.6 129.34 1526.61 128.777L1663.55 117.882L1678.44 284.232C1630.74 288.482 1576.85 291.857 1529.71 298.249C1534.91 360.644 1540.39 422.997 1546.13 485.304C1550.47 491.576 1549.81 506.785 1548.35 514.55L1567.06 731.161C1570.43 770.927 1573.44 812.005 1577.31 851.61L1505.54 858.069C1498.24 850.805 1492.33 844.775 1485.38 836.741C1456.08 837.967 1424.58 840.757 1395.21 843.255C1389.39 786.905 1385.85 728.711 1379.92 672.773C1375.77 666.318 1376.2 653.494 1377.61 645.672L1373.78 604.861C1369.95 598.928 1370.47 589.943 1371.63 582.514C1371.87 581.827 1372.55 580.691 1372.91 580.025C1380.67 577.697 1402.62 576.063 1411.62 575.143L1485.84 567.525C1482.7 545.414 1479.9 507.72 1477.93 484.561C1474.34 445.009 1470.9 405.43 1467.63 365.827L1351.99 377.493C1350.04 363.133 1348.57 339.516 1347.27 324.363C1373.89 320.933 1403.1 318.978 1429.93 316.388L1432.76 316.205C1450.26 314.098 1467.79 312.339 1485.33 310.927C1482.3 270.638 1477.74 230.316 1474.56 190.003C1473.2 172.741 1470.77 154.295 1469.93 137.114L1470.09 134.381Z"/><path fill="#0D1425" d="M1546.13 485.304C1550.47 491.576 1549.81 506.785 1548.35 514.55L1546.13 485.304Z"/><path fill="#0D1425" d="M1379.92 672.773C1375.77 666.318 1376.2 653.494 1377.61 645.672L1379.92 672.773Z"/><path fill="#0D1425" d="M1373.78 604.861C1369.95 598.928 1370.47 589.943 1371.63 582.514C1373.07 589.474 1373.31 597.496 1373.78 604.861Z"/></svg>